<?xml version="1.0" encoding="utf-8"?>
<!-- Generator: Adobe Illustrator 21.0.2, SVG Export Plug-In . SVG Version: 6.00 Build 0)  -->
<svg version="1.1" id="Layer_1" xmlns="http://www.w3.org/2000/svg" xmlns:xlink="http://www.w3.org/1999/xlink" x="0px" y="0px"
	 viewBox="0 0 991.7 447.8" style="enable-background:new 0 0 991.7 447.8;" xml:space="preserve">
<style type="text/css">
	.st0{clip-path:url(#SVGID_2_);}
	.st1{clip-path:url(#SVGID_4_);}
	.st2{clip-path:url(#SVGID_4_);fill:#C4161C;}
</style>
<g>
	<defs>
		<rect id="SVGID_1_" width="991.7" height="447.8"/>
	</defs>
	<clipPath id="SVGID_2_">
		<use xlink:href="#SVGID_1_"  style="overflow:visible;"/>
	</clipPath>
	<g class="st0">
		<defs>
			<rect id="SVGID_3_" width="991.7" height="447.8"/>
		</defs>
		<clipPath id="SVGID_4_">
			<use xlink:href="#SVGID_3_"  style="overflow:visible;"/>
		</clipPath>
		<path class="st1" d="M768.7,0c-123.2,0-223,100.2-223,223.9s99.9,223.9,223,223.9c123.2,0,223-100.2,223-223.9S891.8,0,768.7,0
			 M639.2,305.3c-2.2,3.9-5.3,7-9.3,9.3c-4.1,2.3-8.3,3.4-12.9,3.4c-4.5,0-8.7-1.2-12.6-3.5c-3.9-2.3-7-5.5-9.3-9.7
			c-2.3-4.1-3.5-8.5-3.5-13c0-4.6,1.2-8.9,3.5-13c2.3-4.1,5.4-7.3,9.3-9.6c3.9-2.3,8.1-3.4,12.7-3.4c7.2,0,13.2,2.5,18.1,7.5
			c4.9,5,7.3,11.3,7.3,18.7C642.4,297,641.3,301.4,639.2,305.3"/>
		<path class="st1" d="M0,323.4V234h8.3v36c3.5-4.3,7.3-7.5,11.6-9.6c4.3-2.1,9-3.2,14.1-3.2c9.1,0,16.8,3.3,23.3,9.9
			c6.4,6.6,9.6,14.7,9.6,24.1c0,9.3-3.2,17.3-9.7,23.9s-14.3,9.9-23.4,9.9c-5.2,0-10-1.1-14.2-3.4c-4.2-2.3-8-5.6-11.3-10.1v11.9H0z
			 M33.1,317.1c4.6,0,8.8-1.1,12.7-3.4c3.9-2.3,7-5.5,9.3-9.6c2.3-4.1,3.4-8.5,3.4-13c0-4.6-1.2-8.9-3.5-13.1
			c-2.3-4.2-5.4-7.4-9.3-9.7c-3.9-2.3-8.1-3.5-12.5-3.5c-4.5,0-8.8,1.2-12.9,3.5c-4.1,2.3-7.2,5.4-9.4,9.3
			c-2.2,3.9-3.3,8.3-3.3,13.2c0,7.5,2.4,13.7,7.3,18.7C19.9,314.6,25.9,317.1,33.1,317.1"/>
		<path class="st1" d="M84.8,232.4c1.9,0,3.5,0.7,4.8,2c1.3,1.3,2,3,2,4.9c0,1.9-0.7,3.5-2,4.8c-1.3,1.3-2.9,2-4.8,2
			c-1.8,0-3.4-0.7-4.8-2c-1.3-1.3-2-2.9-2-4.8c0-1.9,0.7-3.5,2-4.9C81.4,233,83,232.4,84.8,232.4 M80.7,258.9H89v64.5h-8.3V258.9z"
			/>
		<polygon class="st1" points="113.4,235 121.6,235 121.6,258.9 134.8,258.9 134.8,266.1 121.6,266.1 121.6,323.4 113.4,323.4 
			113.4,266.1 102.1,266.1 102.1,258.9 113.4,258.9 		"/>
		<path class="st2" d="M146,258.9h16.1v7.4c2.8-3,5.8-5.3,9.2-6.8c3.4-1.5,7-2.3,11-2.3c4,0,7.6,1,10.9,3c3.2,2,5.8,4.9,7.8,8.7
			c2.6-3.8,5.7-6.7,9.4-8.7c3.7-2,7.8-3,12.2-3c4.6,0,8.6,1.1,12.1,3.2c3.5,2.1,6,4.9,7.5,8.4c1.5,3.4,2.3,9,2.3,16.8v37.8h-16.2
			v-32.7c0-7.3-0.9-12.3-2.7-14.8c-1.8-2.6-4.5-3.9-8.1-3.9c-2.8,0-5.2,0.8-7.4,2.4c-2.2,1.6-3.8,3.8-4.9,6.6
			c-1.1,2.8-1.6,7.3-1.6,13.4v29.1h-16.2v-31.2c0-5.8-0.4-9.9-1.3-12.5c-0.9-2.6-2.1-4.5-3.8-5.8c-1.7-1.3-3.7-1.9-6.2-1.9
			c-2.7,0-5.1,0.8-7.3,2.4c-2.2,1.6-3.8,3.8-4.9,6.7c-1.1,2.9-1.6,7.4-1.6,13.6v28.7H146V258.9z"/>
		<path class="st2" d="M307.2,258.9h16.1v64.5h-16.1v-6.8c-3.1,3-6.3,5.2-9.5,6.5c-3.2,1.3-6.6,2-10.3,2c-8.3,0-15.5-3.2-21.5-9.7
			c-6.1-6.5-9.1-14.5-9.1-24.1c0-10,2.9-18.1,8.8-24.5c5.9-6.4,13-9.5,21.4-9.5c3.9,0,7.5,0.7,10.9,2.2c3.4,1.5,6.5,3.7,9.4,6.6
			V258.9z M290.2,272.2c-5,0-9.1,1.8-12.4,5.3c-3.3,3.5-4.9,8.1-4.9,13.6c0,5.6,1.7,10.2,5,13.8c3.4,3.6,7.5,5.4,12.4,5.4
			c5.1,0,9.3-1.8,12.6-5.3c3.3-3.5,5-8.2,5-13.9c0-5.6-1.7-10.2-5-13.6C299.6,273.9,295.3,272.2,290.2,272.2"/>
		<path class="st2" d="M339.5,258.9h16.1v7.4c2.8-3,5.8-5.3,9.2-6.8c3.4-1.5,7-2.3,11-2.3c4,0,7.6,1,10.9,3c3.2,2,5.8,4.9,7.8,8.7
			c2.6-3.8,5.7-6.7,9.4-8.7c3.7-2,7.8-3,12.2-3c4.6,0,8.6,1.1,12.1,3.2c3.5,2.1,6,4.9,7.5,8.4c1.5,3.4,2.3,9,2.3,16.8v37.8h-16.2
			v-32.7c0-7.3-0.9-12.3-2.7-14.8c-1.8-2.6-4.5-3.9-8.1-3.9c-2.8,0-5.2,0.8-7.4,2.4c-2.2,1.6-3.8,3.8-4.9,6.6
			c-1.1,2.8-1.6,7.3-1.6,13.4v29.1h-16.2v-31.2c0-5.8-0.4-9.9-1.3-12.5c-0.9-2.6-2.1-4.5-3.8-5.8c-1.7-1.3-3.7-1.9-6.2-1.9
			c-2.7,0-5.1,0.8-7.3,2.4c-2.2,1.6-3.8,3.8-4.9,6.7c-1.1,2.9-1.6,7.4-1.6,13.6v28.7h-16.1V258.9z"/>
		<path class="st2" d="M500.7,258.9h16.1v64.5h-16.1v-6.8c-3.1,3-6.3,5.2-9.5,6.5c-3.2,1.3-6.6,2-10.3,2c-8.3,0-15.5-3.2-21.5-9.7
			c-6.1-6.5-9.1-14.5-9.1-24.1c0-10,2.9-18.1,8.8-24.5c5.9-6.4,13-9.5,21.4-9.5c3.9,0,7.5,0.7,10.8,2.2c3.4,1.5,6.5,3.7,9.4,6.6
			V258.9z M483.8,272.2c-5,0-9.1,1.8-12.4,5.3c-3.3,3.5-4.9,8.1-4.9,13.6c0,5.6,1.7,10.2,5,13.8c3.4,3.6,7.5,5.4,12.4,5.4
			c5.1,0,9.3-1.8,12.6-5.3c3.3-3.5,5-8.2,5-13.9c0-5.6-1.7-10.2-5-13.6C493.1,273.9,488.9,272.2,483.8,272.2"/>
	</g>
</g>
</svg>
